<svg id="Capa_1" enable-background="new 0 0 512 512" height="512" viewBox="0 0 512 512" width="512" xmlns="http://www.w3.org/2000/svg"><g><g><path d="m28.886 74.303-5.023 11.944v394.501c0 17.26 13.992 31.252 31.252 31.252h351.594c17.26 0 31.252-13.992 31.252-31.252v-394.501l-5.023-11.944z" fill="#d8eafb"/></g><g><path d="m386.788 74.303v355.272c0 17.26-13.992 31.252-31.252 31.252h-331.673v19.921c0 17.26 13.992 31.252 31.252 31.252h351.594c17.26 0 31.252-13.992 31.252-31.252v-394.501l-5.023-11.944z" fill="#b3d8fb"/></g><g><path d="m406.709 0h-351.594c-17.26 0-31.252 13.992-31.252 31.252v54.995h414.098v-54.995c0-17.26-13.992-31.252-31.252-31.252z" fill="#1690fb"/></g><g><path d="m406.709 0h-19.921v86.247h51.173v-54.995c0-17.26-13.992-31.252-31.252-31.252z" fill="#0571f9"/></g><g><g><circle cx="76.444" cy="43.123" fill="#b3d8fb" r="14.021"/></g><g><circle cx="119.575" cy="43.123" fill="#b3d8fb" r="14.021"/></g><g><circle cx="162.706" cy="43.123" fill="#b3d8fb" r="14.021"/></g></g><g><path d="m419.208 184.431c-1.929 0-3.856-.736-5.328-2.206l-33.512-33.512c-2.942-2.943-2.942-7.713 0-10.656 2.943-2.941 7.713-2.941 10.656 0l28.184 28.185 56.067-56.067c2.944-2.942 7.714-2.94 10.656 0 2.942 2.943 2.942 7.713 0 10.656l-61.395 61.394c-1.472 1.47-3.401 2.206-5.328 2.206z" fill="#0dc17a"/></g><g fill="#465961"><path d="m84.354 255.406c3.883 1.482 8.241-.47 9.722-4.36l6.675-17.525h44.586l6.606 17.505c1.76 2.7 4.212 6.121 9.709 4.388 3.893-1.469 5.858-5.816 4.388-9.709l-33.911-89.859c-.025-.07-.053-.138-.081-.207-1.487-3.614-4.971-5.947-8.877-5.947-.004 0-.008 0-.011 0-3.911.004-7.395 2.346-8.875 5.966-.024.057-.046.114-.068.172l-34.222 89.855c-1.482 3.887.47 8.24 4.359 9.721zm38.792-80.686 16.504 43.732h-33.161z"/><path d="m223.338 148.344h-26.473c-4.162 0-7.534 3.373-7.534 7.534v91.139c.073 3.104 2.463 7.292 7.568 7.534.243-.001 31.063-.108 31.063-.108 17.681 0 32.066-14.385 32.066-32.066 0-11.396-5.981-21.416-14.963-27.104 4.224-4.973 6.779-11.404 6.779-18.424 0-15.717-12.787-28.505-28.506-28.505zm0 15.069c7.41 0 13.437 6.027 13.437 13.437 0 7.409-6.027 13.436-13.437 13.436l-18.939.026v-26.899zm4.624 75.962c-4.276 0-15.801.044-23.562.076v-34.035c2.813-.012 23.562-.036 23.562-.036 9.373 0 16.997 7.625 16.997 16.997s-7.624 16.998-16.997 16.998z"/><path d="m331.083 163.413c7.622 0 14.974 2.245 21.261 6.491 3.448 2.328 8.132 1.423 10.461-2.026 2.329-3.448 1.422-8.132-2.026-10.461-8.788-5.936-19.057-9.074-29.696-9.074-29.282 0-53.104 23.822-53.104 53.104 0 29.281 23.822 53.103 53.104 53.103 11.592 0 21.973-3.789 30.021-10.956 1.58-1.408 3.081-2.956 4.461-4.602 2.673-3.188 2.255-7.94-.933-10.614-3.187-2.673-7.94-2.256-10.614.933-.912 1.088-1.9 2.107-2.936 3.03-5.319 4.737-12.048 7.14-19.998 7.14-20.973 0-38.036-17.062-38.036-38.035s17.063-38.033 38.035-38.033z"/><path d="m84.354 397.731c3.883 1.48 8.241-.47 9.722-4.36l6.675-17.525h44.586l6.606 17.505c1.76 2.7 4.212 6.121 9.709 4.388 3.893-1.469 5.858-5.816 4.388-9.709l-33.911-89.859c-.026-.07-.054-.139-.082-.209-1.487-3.612-4.971-5.944-8.877-5.944-.004 0-.008 0-.012 0-3.91.004-7.393 2.346-8.873 5.965-.024.057-.046.114-.068.172l-34.222 89.855c-1.482 3.886.47 8.239 4.359 9.721zm38.792-80.686 16.504 43.732h-33.161z"/><path d="m189.331 389.342c.073 3.104 2.463 7.292 7.568 7.534.243-.001 24.438-.108 31.063-.108 17.681 0 32.066-14.385 32.066-32.066 0-11.396-5.981-21.415-14.963-27.104 4.223-4.973 6.779-11.404 6.779-18.424 0-15.718-12.788-28.505-28.506-28.505h-26.473c-4.162 0-7.534 3.373-7.534 7.534zm38.631-7.642c-4.276 0-15.801.044-23.562.076v-34.034c2.878-.012 6.22-.025 9.362-.036h14.201c9.373 0 16.997 7.625 16.997 16.997-.001 9.372-7.625 16.997-16.998 16.997zm-4.624-75.962c7.41 0 13.437 6.027 13.437 13.436 0 7.41-6.027 13.437-13.437 13.437-1.952 0-5.631.011-9.641.025h-9.297v-26.898z"/><path d="m330.777 292.018c-29.281 0-53.103 23.822-53.103 53.103s23.822 53.103 53.103 53.103c29.282 0 53.104-23.822 53.104-53.103s-23.822-53.103-53.104-53.103zm0 91.137c-20.973 0-38.035-17.062-38.035-38.035s17.062-38.035 38.035-38.035 38.036 17.062 38.036 38.035-17.063 38.035-38.036 38.035z"/></g><g><path d="m380.709 444.425c-13.271 0-20.358-5.255-26.053-9.478-5.099-3.781-8.784-6.513-17.079-6.513-8.294 0-11.978 2.732-17.078 6.513-5.694 4.222-12.782 9.478-26.053 9.478-13.27 0-20.357-5.255-26.051-9.478-5.098-3.781-8.782-6.513-17.074-6.513-8.293 0-11.976 2.732-17.075 6.513-5.695 4.222-12.781 9.478-26.052 9.478-13.27 0-20.356-5.255-26.05-9.478-5.098-3.781-8.782-6.513-17.074-6.513s-11.975 2.732-17.074 6.513c-5.694 4.222-12.78 9.478-26.05 9.478s-20.356-5.255-26.051-9.478c-5.098-3.781-8.782-6.513-17.076-6.513-4.162 0-7.534-3.373-7.534-7.534 0-4.162 3.373-7.534 7.534-7.534 13.271 0 20.357 5.255 26.052 9.478 5.098 3.781 8.782 6.513 17.075 6.513 8.292 0 11.975-2.732 17.074-6.513 5.694-4.222 12.78-9.478 26.05-9.478s20.356 5.255 26.05 9.478c5.098 3.781 8.782 6.513 17.074 6.513 8.294 0 11.977-2.732 17.076-6.513 5.695-4.222 12.781-9.478 26.051-9.478 13.269 0 20.356 5.255 26.05 9.478 5.098 3.781 8.782 6.513 17.075 6.513 8.295 0 11.979-2.732 17.079-6.513 5.694-4.222 12.781-9.478 26.052-9.478s20.358 5.255 26.053 9.478c5.099 3.781 8.784 6.513 17.079 6.513 4.162 0 7.534 3.373 7.534 7.534s-3.373 7.534-7.534 7.534z" fill="#dd636e"/></g></g></svg>